<?xml version="1.0" encoding="iso-8859-1"?>
<!-- Generator: Adobe Illustrator 19.0.0, SVG Export Plug-In . SVG Version: 6.00 Build 0)  -->
<svg version="1.1" id="Layer_1" xmlns="http://www.w3.org/2000/svg" xmlns:xlink="http://www.w3.org/1999/xlink" x="0px" y="0px"
	 viewBox="0 0 512 512" style="enable-background:new 0 0 512 512;" xml:space="preserve">
<g>
	<g>
		<rect x="33.391" y="100.174" width="33.391" height="311.652"/>
	</g>
</g>
<g>
	<g>
		<polygon points="33.391,478.609 33.391,411.826 0,411.826 0,512 445.217,512 445.217,478.609 		"/>
	</g>
</g>
<g>
	<g>
		<polygon points="0,0 0,100.174 33.391,100.174 33.391,33.391 411.826,33.391 411.826,0 		"/>
	</g>
</g>
<g>
	<g>
		<rect x="411.826" y="33.391" width="33.391" height="33.391"/>
	</g>
</g>
<g>
	<g>
		<rect x="445.217" y="66.783" width="33.391" height="133.565"/>
	</g>
</g>
<g>
	<g>
		<rect x="478.609" y="300.522" width="33.391" height="144.696"/>
	</g>
</g>
<g>
	<g>
		<rect x="445.217" y="445.217" width="33.391" height="33.391"/>
	</g>
</g>
<g>
	<g>
		<polygon points="345.043,122.435 345.043,155.826 166.957,155.826 166.957,122.435 345.043,122.435 345.043,89.044 
			133.565,89.044 133.565,189.217 378.435,189.217 378.435,122.435 		"/>
	</g>
</g>
<g>
	<g>
		<polygon points="345.043,333.913 345.043,378.435 166.957,378.435 166.957,333.913 345.043,333.913 345.043,300.522 
			133.565,300.522 133.565,411.826 378.435,411.826 378.435,333.913 		"/>
	</g>
</g>
<g>
	<g>
		<polygon points="411.826,200.348 411.826,233.739 378.435,233.739 378.435,267.13 445.217,267.13 445.217,200.348 		"/>
	</g>
</g>
<g>
	<g>
		<rect x="445.217" y="267.13" width="33.391" height="33.391"/>
	</g>
</g>
<g>
</g>
<g>
</g>
<g>
</g>
<g>
</g>
<g>
</g>
<g>
</g>
<g>
</g>
<g>
</g>
<g>
</g>
<g>
</g>
<g>
</g>
<g>
</g>
<g>
</g>
<g>
</g>
<g>
</g>
</svg>
