<svg xmlns="http://www.w3.org/2000/svg" viewBox="0 0 512 512" style="enable-background:new 0 0 512 512" xml:space="preserve">
  <path d="M33.391 100.174h33.391v311.652H33.391z"/>
  <path d="M33.391 478.609v-66.783H0V512h445.217v-33.391zM0 0v100.174h33.391V33.391h378.435V0zM411.826 33.391h33.391v33.391h-33.391zM445.217 66.783h33.391v133.565h-33.391zM478.609 300.522H512v144.696h-33.391zM445.217 445.217h33.391v33.391h-33.391zM345.043 122.435v33.391H166.957v-33.391h178.086V89.044H133.565v100.173h244.87v-66.782zM345.043 333.913v44.522H166.957v-44.522h178.086v-33.391H133.565v111.304h244.87v-77.913zM411.826 200.348v33.391h-33.391v33.391h66.782v-66.782zM445.217 267.13h33.391v33.391h-33.391z"/>
</svg>
